<?xml version="1.0" encoding="UTF-8"?>
<svg xmlns="http://www.w3.org/2000/svg" xmlns:xlink="http://www.w3.org/1999/xlink" width="128px" height="128px" viewBox="0 0 128 128" version="1.1">
<defs>
<linearGradient id="linear0" gradientUnits="userSpaceOnUse" x1="-2247.031006" y1="365.755005" x2="-2225.549072" y2="324.209991" gradientTransform="matrix(2.697974,0,0,-2.694737,6093.810773,983.883486)">
<stop offset="0" style="stop-color:rgb(35.686275%,46.666667%,61.960784%);stop-opacity:1;"/>
<stop offset="0.399" style="stop-color:rgb(17.647059%,23.137255%,31.372549%);stop-opacity:1;"/>
<stop offset="1" style="stop-color:rgb(4.705882%,5.490196%,7.843137%);stop-opacity:1;"/>
</linearGradient>
<linearGradient id="linear1" gradientUnits="userSpaceOnUse" x1="-2269.224121" y1="408.902008" x2="-2262.74292" y2="394.70401" gradientTransform="matrix(2.697974,0,0,-2.694737,6174.628808,1124.591792)">
<stop offset="0" style="stop-color:rgb(0%,0%,0%);stop-opacity:0;"/>
<stop offset="1" style="stop-color:rgb(0%,0%,0%);stop-opacity:0.619608;"/>
</linearGradient>
<radialGradient id="radial0" gradientUnits="userSpaceOnUse" cx="-2580.241943" cy="505.223999" fx="-2580.241943" fy="505.223999" r="7.501" gradientTransform="matrix(10.102565,-2.051503,-1.068398,-5.248539,26650.477458,-2621.173339)">
<stop offset="0" style="stop-color:rgb(90.196078%,94.509804%,99.215686%);stop-opacity:1;"/>
<stop offset="0" style="stop-color:rgb(74.117647%,85.098039%,97.647059%);stop-opacity:1;"/>
<stop offset="0.065" style="stop-color:rgb(74.117647%,85.098039%,97.647059%);stop-opacity:1;"/>
<stop offset="1" style="stop-color:rgb(10.980392%,20.784314%,33.72549%);stop-opacity:0.101961;"/>
</radialGradient>
<linearGradient id="linear2" gradientUnits="userSpaceOnUse" x1="-2286.269043" y1="410.377014" x2="-2275.039062" y2="386.127991" gradientTransform="matrix(2.697974,0,0,-2.694737,6174.628808,1124.591792)">
<stop offset="0" style="stop-color:rgb(0%,0%,0%);stop-opacity:0;"/>
<stop offset="1" style="stop-color:rgb(0%,0%,0%);stop-opacity:0.619608;"/>
</linearGradient>
<radialGradient id="radial1" gradientUnits="userSpaceOnUse" cx="-2579.084961" cy="509.848999" fx="-2579.084961" fy="509.848999" r="7.5" gradientTransform="matrix(10.102565,-2.051503,-1.068398,-5.248539,26630.832831,-2578.723011)">
<stop offset="0" style="stop-color:rgb(90.196078%,94.509804%,99.215686%);stop-opacity:1;"/>
<stop offset="0" style="stop-color:rgb(74.117647%,85.098039%,97.647059%);stop-opacity:1;"/>
<stop offset="0.065" style="stop-color:rgb(74.117647%,85.098039%,97.647059%);stop-opacity:1;"/>
<stop offset="1" style="stop-color:rgb(10.980392%,20.784314%,33.72549%);stop-opacity:0.101961;"/>
</radialGradient>
<linearGradient id="linear3" gradientUnits="userSpaceOnUse" x1="-2191.355957" y1="412.553009" x2="-2185.079102" y2="406.983002" gradientTransform="matrix(2.697974,0,0,-2.694737,6014.09933,1124.591792)">
<stop offset="0" style="stop-color:rgb(99.215686%,92.54902%,59.215686%);stop-opacity:1;"/>
<stop offset="0.353" style="stop-color:rgb(99.215686%,92.54902%,59.215686%);stop-opacity:1;"/>
<stop offset="0.513" style="stop-color:rgb(99.215686%,92.54902%,59.215686%);stop-opacity:1;"/>
<stop offset="0.628" style="stop-color:rgb(85.882353%,60%,5.882353%);stop-opacity:1;"/>
<stop offset="1" style="stop-color:rgb(85.882353%,60%,5.882353%);stop-opacity:1;"/>
</linearGradient>
<linearGradient id="linear4" gradientUnits="userSpaceOnUse" x1="-2190.885986" y1="374.289001" x2="-2184.260986" y2="381.037994" gradientTransform="matrix(2.697974,0,0,-2.694737,6014.09933,1124.591792)">
<stop offset="0" style="stop-color:rgb(100%,86.27451%,46.27451%);stop-opacity:1;"/>
<stop offset="0.327" style="stop-color:rgb(89.411765%,56.470588%,23.137255%);stop-opacity:1;"/>
<stop offset="0.451" style="stop-color:rgb(79.215686%,26.666667%,0%);stop-opacity:1;"/>
<stop offset="0.58" style="stop-color:rgb(99.215686%,92.54902%,59.215686%);stop-opacity:1;"/>
<stop offset="0.704" style="stop-color:rgb(85.882353%,60%,5.882353%);stop-opacity:1;"/>
<stop offset="1" style="stop-color:rgb(85.882353%,60%,5.882353%);stop-opacity:1;"/>
</linearGradient>
<linearGradient id="linear5" gradientUnits="userSpaceOnUse" x1="-2221.405029" y1="375.502014" x2="-2225.824951" y2="380.364014" gradientTransform="matrix(2.697974,0,0,-2.694737,6014.09933,1124.591792)">
<stop offset="0" style="stop-color:rgb(100%,86.27451%,46.27451%);stop-opacity:1;"/>
<stop offset="0.327" style="stop-color:rgb(89.411765%,56.470588%,23.137255%);stop-opacity:1;"/>
<stop offset="0.451" style="stop-color:rgb(79.215686%,26.666667%,0%);stop-opacity:1;"/>
<stop offset="0.58" style="stop-color:rgb(99.215686%,92.54902%,59.215686%);stop-opacity:1;"/>
<stop offset="0.704" style="stop-color:rgb(85.882353%,60%,5.882353%);stop-opacity:1;"/>
<stop offset="1" style="stop-color:rgb(85.882353%,60%,5.882353%);stop-opacity:1;"/>
</linearGradient>
<linearGradient id="linear6" gradientUnits="userSpaceOnUse" x1="-2225.740967" y1="406.593994" x2="-2219.730957" y2="412.515015" gradientTransform="matrix(2.697974,0,0,-2.694737,6014.09933,1124.591792)">
<stop offset="0" style="stop-color:rgb(79.215686%,26.666667%,0%);stop-opacity:1;"/>
<stop offset="0.353" style="stop-color:rgb(79.215686%,26.666667%,0%);stop-opacity:1;"/>
<stop offset="0.513" style="stop-color:rgb(99.215686%,92.54902%,59.215686%);stop-opacity:1;"/>
<stop offset="0.628" style="stop-color:rgb(85.882353%,60%,5.882353%);stop-opacity:1;"/>
<stop offset="1" style="stop-color:rgb(85.882353%,60%,5.882353%);stop-opacity:1;"/>
</linearGradient>
<linearGradient id="linear7" gradientUnits="userSpaceOnUse" x1="-2217.365967" y1="406.207001" x2="-2211.935059" y2="381.963989" gradientTransform="matrix(2.697974,0,0,-2.694737,6014.09933,1124.591792)">
<stop offset="0" style="stop-color:rgb(85.490196%,58.039216%,5.882353%);stop-opacity:1;"/>
<stop offset="0.235" style="stop-color:rgb(93.72549%,81.960784%,10.196078%);stop-opacity:1;"/>
<stop offset="0.75" style="stop-color:rgb(93.72549%,81.960784%,10.196078%);stop-opacity:1;"/>
<stop offset="0.908" style="stop-color:rgb(93.72549%,81.960784%,10.196078%);stop-opacity:1;"/>
<stop offset="1" style="stop-color:rgb(82.745098%,56.470588%,5.490196%);stop-opacity:1;"/>
</linearGradient>
<linearGradient id="linear8" gradientUnits="userSpaceOnUse" x1="-2213.958984" y1="406.278992" x2="-2209.149902" y2="383.423004" gradientTransform="matrix(2.697974,0,0,-2.694737,6014.09933,1124.591792)">
<stop offset="0" style="stop-color:rgb(77.647059%,18.823529%,0%);stop-opacity:1;"/>
<stop offset="0.491" style="stop-color:rgb(85.882353%,56.470588%,0%);stop-opacity:1;"/>
<stop offset="0.8" style="stop-color:rgb(85.882353%,56.470588%,0%);stop-opacity:1;"/>
<stop offset="1" style="stop-color:rgb(76.862745%,23.137255%,0%);stop-opacity:1;"/>
</linearGradient>
<linearGradient id="linear9" gradientUnits="userSpaceOnUse" x1="-2204.470947" y1="395.464996" x2="-2208.001953" y2="380.777008" gradientTransform="matrix(2.697974,0,0,-2.694737,6014.09933,1124.591792)">
<stop offset="0" style="stop-color:rgb(67.843137%,18.431373%,0%);stop-opacity:1;"/>
<stop offset="1" style="stop-color:rgb(79.607843%,45.882353%,0%);stop-opacity:1;"/>
</linearGradient>
<linearGradient id="linear10" gradientUnits="userSpaceOnUse" x1="-2204.522949" y1="402.445007" x2="-2209.561035" y2="386.97699" gradientTransform="matrix(2.697974,0,0,-2.694737,6014.09933,1124.591792)">
<stop offset="0" style="stop-color:rgb(92.54902%,83.529412%,0%);stop-opacity:1;"/>
<stop offset="0.869" style="stop-color:rgb(92.54902%,83.529412%,0%);stop-opacity:1;"/>
<stop offset="1" style="stop-color:rgb(100%,93.72549%,34.117647%);stop-opacity:1;"/>
</linearGradient>
<linearGradient id="linear11" gradientUnits="userSpaceOnUse" x1="-2215.457031" y1="406.481995" x2="-2214.219971" y2="403.821014" gradientTransform="matrix(2.697974,0,0,-2.694737,6014.09933,1124.591792)">
<stop offset="0" style="stop-color:rgb(100%,83.529412%,6.666667%);stop-opacity:1;"/>
<stop offset="1" style="stop-color:rgb(99.215686%,97.254902%,86.27451%);stop-opacity:1;"/>
</linearGradient>
<linearGradient id="linear12" gradientUnits="userSpaceOnUse" x1="-2206.38208" y1="402.904999" x2="-2200.552002" y2="382.790985" gradientTransform="matrix(2.697974,0,0,-2.694737,6014.09933,1124.591792)">
<stop offset="0" style="stop-color:rgb(74.117647%,20%,0%);stop-opacity:1;"/>
<stop offset="0.188" style="stop-color:rgb(74.117647%,20%,0%);stop-opacity:1;"/>
<stop offset="0.411" style="stop-color:rgb(79.607843%,52.156863%,0%);stop-opacity:1;"/>
<stop offset="1" style="stop-color:rgb(76.078431%,43.529412%,0%);stop-opacity:1;"/>
</linearGradient>
<linearGradient id="linear13" gradientUnits="userSpaceOnUse" x1="-2206.618896" y1="395.105988" x2="-2202.743896" y2="381.730988" gradientTransform="matrix(2.697974,0,0,-2.694737,6014.09933,1124.591792)">
<stop offset="0" style="stop-color:rgb(100%,82.745098%,1.176471%);stop-opacity:1;"/>
<stop offset="0.902" style="stop-color:rgb(100%,82.745098%,1.176471%);stop-opacity:1;"/>
<stop offset="1" style="stop-color:rgb(82.352941%,49.411765%,0%);stop-opacity:1;"/>
</linearGradient>
<linearGradient id="linear14" gradientUnits="userSpaceOnUse" x1="-2193.924072" y1="406.828003" x2="-2198.284912" y2="380.502014" gradientTransform="matrix(2.697974,0,0,-2.694737,6014.09933,1124.591792)">
<stop offset="0" style="stop-color:rgb(64.705882%,12.156863%,0%);stop-opacity:1;"/>
<stop offset="0.288" style="stop-color:rgb(77.647059%,44.705882%,0%);stop-opacity:1;"/>
<stop offset="0.644" style="stop-color:rgb(77.647059%,44.705882%,0%);stop-opacity:1;"/>
<stop offset="1" style="stop-color:rgb(76.078431%,33.333333%,0%);stop-opacity:1;"/>
</linearGradient>
<linearGradient id="linear15" gradientUnits="userSpaceOnUse" x1="-2197.301025" y1="406.260986" x2="-2201.676025" y2="382.990997" gradientTransform="matrix(2.697974,0,0,-2.694737,6014.09933,1124.591792)">
<stop offset="0" style="stop-color:rgb(80.392157%,48.627451%,0%);stop-opacity:1;"/>
<stop offset="0.314" style="stop-color:rgb(93.333333%,84.313725%,0%);stop-opacity:1;"/>
<stop offset="1" style="stop-color:rgb(93.333333%,84.313725%,0%);stop-opacity:1;"/>
</linearGradient>
<linearGradient id="linear16" gradientUnits="userSpaceOnUse" x1="-2195.818115" y1="406.47699" x2="-2194.668945" y2="404.197998" gradientTransform="matrix(2.697974,0,0,-2.694737,6014.09933,1124.591792)">
<stop offset="0" style="stop-color:rgb(100%,83.529412%,6.666667%);stop-opacity:1;"/>
<stop offset="1" style="stop-color:rgb(99.215686%,97.254902%,86.27451%);stop-opacity:1;"/>
</linearGradient>
<linearGradient id="linear17" gradientUnits="userSpaceOnUse" x1="-2230.468018" y1="383.140991" x2="-2178.718018" y2="404.68399" gradientTransform="matrix(2.697974,0,0,-2.694737,6014.09933,1124.591792)">
<stop offset="0" style="stop-color:rgb(31.764706%,16.078431%,5.490196%);stop-opacity:1;"/>
<stop offset="0.346" style="stop-color:rgb(81.568627%,55.686275%,16.078431%);stop-opacity:1;"/>
<stop offset="0.417" style="stop-color:rgb(88.235294%,81.568627%,17.647059%);stop-opacity:1;"/>
<stop offset="0.498" style="stop-color:rgb(96.470588%,89.803922%,49.803922%);stop-opacity:1;"/>
<stop offset="0.537" style="stop-color:rgb(96.470588%,89.803922%,49.803922%);stop-opacity:1;"/>
<stop offset="0.605" style="stop-color:rgb(88.235294%,81.568627%,17.647059%);stop-opacity:1;"/>
<stop offset="0.687" style="stop-color:rgb(81.568627%,55.686275%,16.078431%);stop-opacity:1;"/>
<stop offset="1" style="stop-color:rgb(27.058824%,16.470588%,8.235294%);stop-opacity:1;"/>
</linearGradient>
<linearGradient id="linear18" gradientUnits="userSpaceOnUse" x1="-2192.397949" y1="375.157013" x2="-2219.147949" y2="413.069" gradientTransform="matrix(2.697974,0,0,-2.694737,6012.569204,1121.870164)">
<stop offset="0" style="stop-color:rgb(100%,88.235294%,16.862745%);stop-opacity:1;"/>
<stop offset="0.136" style="stop-color:rgb(100%,96.862745%,78.039216%);stop-opacity:0;"/>
<stop offset="0.819" style="stop-color:rgb(100%,96.862745%,78.039216%);stop-opacity:0;"/>
<stop offset="1" style="stop-color:rgb(100%,88.235294%,16.862745%);stop-opacity:1;"/>
</linearGradient>
</defs>
<g id="surface1">
<path style=" stroke:none;fill-rule:nonzero;fill:url(#linear0);" d="M 119.214844 63.796875 C 119.222656 94.371094 95.09375 119.167969 65.320312 119.175781 C 35.542969 119.183594 11.398438 94.40625 11.390625 63.832031 L 11.390625 63.796875 C 11.382812 33.21875 35.507812 8.421875 65.285156 8.414062 C 95.058594 8.40625 119.203125 33.183594 119.214844 63.761719 Z M 119.214844 63.796875 "/>
<path style=" stroke:none;fill-rule:nonzero;fill:url(#linear1);" d="M 70.578125 9.179688 L 48.992188 10.527344 C 48.515625 10.554688 48.050781 10.699219 47.644531 10.949219 L 28.757812 23.074219 C 27.929688 23.585938 27.421875 24.480469 27.402344 25.453125 C 27.386719 26.421875 27.867188 27.335938 28.675781 27.875 C 31.164062 29.550781 33.632812 31.480469 34.324219 33.265625 C 35.816406 37.214844 37.511719 43.003906 38.960938 48 C 39.597656 50.230469 40.273438 52.449219 40.984375 54.65625 C 41.292969 55.578125 41.542969 56.402344 41.828125 57.097656 C 42.113281 57.792969 42.292969 58.320312 43.007812 59.117188 C 43.117188 59.207031 43.226562 59.292969 43.347656 59.371094 C 44.625 60.40625 45.953125 60.976562 47.5625 61.476562 C 49.167969 61.972656 51.027344 62.367188 52.789062 62.65625 C 54.554688 62.945312 56.246094 63.046875 57.765625 63.074219 C 59.285156 63.101562 60.355469 63.433594 62.148438 62.320312 C 62.234375 62.265625 62.320312 62.210938 62.402344 62.152344 C 63.171875 61.539062 63.25 61.128906 63.414062 60.804688 C 63.578125 60.476562 63.71875 60.207031 63.835938 59.878906 C 64.070312 59.21875 64.285156 58.480469 64.511719 57.601562 C 65.585938 53.371094 66.347656 49.0625 66.785156 44.71875 C 66.980469 42.8125 67.214844 41.546875 66.785156 39.835938 C 66.765625 39.746094 66.8125 39.675781 66.785156 39.582031 L 66.699219 39.582031 C 66.265625 37.5 65.160156 34.484375 63.242188 31.078125 C 61.53125 28.050781 59.238281 25.390625 56.496094 23.246094 C 56.59375 23.144531 56.8125 22.960938 57.339844 22.742188 L 67.878906 22.820312 C 68.195312 22.820312 68.507812 22.757812 68.808594 22.65625 C 69.054688 22.574219 69.316406 22.746094 70.578125 22.148438 C 71.210938 21.851562 71.980469 21.167969 72.347656 20.464844 C 72.714844 19.761719 72.867188 19.164062 72.9375 18.527344 L 73.613281 12.378906 C 73.71875 11.535156 73.4375 10.683594 72.851562 10.066406 C 72.261719 9.445312 71.429688 9.121094 70.578125 9.179688 Z M 70.578125 9.179688 "/>
<path style=" stroke:none;fill-rule:nonzero;fill:url(#radial0);" d="M 70.746094 12.042969 L 70.070312 18.179688 C 69.882812 19.925781 69.144531 19.5 67.851562 19.921875 L 56.746094 19.882812 C 53.46875 20.933594 53.109375 22.671875 53.332031 24.160156 C 59.554688 27.617188 63.4375 37.421875 64.003906 40.335938 C 64.800781 43.144531 61.722656 59 60.628906 59.871094 C 58.789062 61.015625 47.867188 59.414062 45.117188 57.175781 C 43.636719 55.519531 40.160156 40.558594 37.023438 32.25 C 35.867188 29.277344 32.769531 27.191406 30.277344 25.515625 L 49.164062 13.386719 Z M 70.746094 12.042969 "/>
<path style=" stroke:none;fill-rule:nonzero;fill:url(#linear2);" d="M 16.867188 43.285156 C 15.820312 43.382812 14.949219 44.125 14.679688 45.140625 L 8.1875 67.289062 C 7.882812 68.335938 8.289062 69.460938 9.199219 70.066406 C 11.6875 71.738281 14.265625 73.691406 15.015625 75.621094 C 15.085938 75.769531 15.171875 75.910156 15.269531 76.042969 C 15.289062 76.117188 15.320312 76.148438 15.351562 76.296875 C 15.46875 76.796875 15.605469 77.667969 15.773438 78.652344 C 16.117188 80.625 16.589844 83.300781 17.207031 86.066406 C 17.824219 88.828125 18.585938 91.679688 19.738281 94.148438 C 20.890625 96.617188 22.429688 98.902344 25.132812 99.792969 C 24.476562 99.574219 25.023438 99.820312 25.386719 100.042969 C 25.75 100.269531 26.226562 100.582031 26.820312 100.972656 C 28 101.753906 29.511719 102.734375 31.035156 103.75 C 32.554688 104.765625 34.085938 105.84375 35.335938 106.613281 C 35.957031 106.996094 36.523438 107.28125 37.019531 107.539062 C 37.269531 107.667969 37.492188 107.769531 37.777344 107.875 C 38.0625 107.984375 38.230469 108.25 39.382812 108.042969 C 40.703125 107.804688 41.109375 107.070312 41.320312 106.695312 C 41.53125 106.320312 41.578125 106.039062 41.65625 105.769531 C 41.816406 105.230469 41.980469 104.695312 42.078125 104.085938 C 42.277344 102.859375 42.417969 101.347656 42.585938 99.875 C 42.753906 98.402344 42.921875 96.914062 43.09375 95.917969 C 43.164062 95.507812 43.21875 95.328125 43.261719 95.160156 C 43.445312 95 43.710938 95.023438 43.851562 94.824219 C 44.402344 94.050781 44.464844 93.246094 44.441406 92.632812 C 44.398438 91.40625 44.003906 90.46875 43.515625 89.433594 C 42.53125 87.355469 40.925781 84.964844 39.128906 82.441406 C 35.667969 77.574219 31.710938 72.78125 29.941406 70.824219 C 29.792969 70.339844 29.707031 69.839844 29.519531 69.308594 C 29.285156 68.644531 29.019531 67.921875 28.84375 67.289062 C 32.578125 68.878906 36.441406 70.3125 40.734375 70.824219 C 40.988281 70.835938 41.242188 70.804688 41.492188 70.738281 C 42.828125 70.515625 44.132812 70.117188 45.371094 69.558594 C 46.097656 69.230469 46.871094 68.894531 47.5625 68.296875 C 48.25 67.695312 49.019531 66.738281 49.164062 65.433594 C 49.230469 64.839844 49.078125 64.242188 48.742188 63.75 C 43.949219 56.59375 37.058594 54.761719 29.855469 52.128906 L 25.722656 47.074219 C 25.46875 46.78125 25.152344 46.550781 24.792969 46.402344 L 18.132812 43.539062 C 17.742188 43.34375 17.304688 43.257812 16.867188 43.285156 Z M 16.867188 43.285156 "/>
<path style=" stroke:none;fill-rule:nonzero;fill:url(#radial1);" d="M 28.320312 54.246094 C 35.925781 57.082031 42.167969 58.527344 46.609375 65.15625 C 46.421875 66.898438 42.601562 68.074219 41.046875 68.328125 C 36.441406 67.773438 32.199219 66.125 28.035156 64.238281 C 23.917969 63.351562 27.5 70.605469 27.722656 72.09375 C 30.664062 75.289062 45.25 93.148438 41.246094 93.632812 C 40.261719 93.753906 39.839844 105.476562 38.925781 105.640625 C 38.011719 105.800781 26.886719 97.722656 25.886719 97.394531 C 19.476562 95.285156 18.421875 75.300781 17.375 74.703125 C 16.222656 71.730469 13.125 69.644531 10.632812 67.964844 L 17.117188 45.835938 L 23.8125 48.695312 Z M 28.320312 54.246094 "/>
<path style=" stroke:none;fill-rule:nonzero;fill:rgb(0%,0%,0%);fill-opacity:0.317647;" d="M 118.859375 34.75 L 118.773438 16.050781 C 118.785156 15.15625 118.433594 14.292969 117.796875 13.660156 C 117.164062 13.023438 116.300781 12.671875 115.402344 12.683594 L 98.285156 12.515625 C 96.945312 12.507812 95.730469 13.300781 95.195312 14.53125 C 94.664062 15.761719 94.917969 17.1875 95.839844 18.160156 L 113.042969 37.023438 C 113.972656 38.050781 115.441406 38.394531 116.738281 37.890625 C 118.027344 37.382812 118.871094 36.132812 118.859375 34.75 Z M 118.859375 34.75 "/>
<path style=" stroke:none;fill-rule:nonzero;fill:rgb(0%,0%,0%);fill-opacity:0.317647;" d="M 117.734375 34.75 L 117.648438 16.054688 C 117.632812 14.851562 116.660156 13.882812 115.457031 13.867188 L 98.34375 13.699219 C 97.464844 13.695312 96.664062 14.207031 96.300781 15.007812 C 95.9375 15.808594 96.074219 16.746094 96.65625 17.40625 L 113.855469 36.269531 C 114.480469 36.949219 115.457031 37.175781 116.316406 36.839844 C 117.175781 36.503906 117.738281 35.671875 117.734375 34.75 Z M 117.734375 34.75 "/>
<path style=" stroke:none;fill-rule:nonzero;fill:rgb(0%,0%,0%);fill-opacity:0.317647;" d="M 117.003906 34.75 L 116.921875 16.050781 C 116.925781 15.648438 116.769531 15.257812 116.488281 14.972656 C 116.199219 14.6875 115.808594 14.53125 115.40625 14.535156 L 98.289062 14.367188 C 97.6875 14.363281 97.144531 14.71875 96.902344 15.269531 C 96.664062 15.816406 96.777344 16.457031 97.191406 16.894531 L 114.390625 35.757812 C 114.804688 36.222656 115.464844 36.386719 116.046875 36.160156 C 116.632812 35.9375 117.011719 35.371094 117.003906 34.75 Z M 117.003906 34.75 "/>
<path style=" stroke:none;fill-rule:nonzero;fill:rgb(0%,0%,0%);fill-opacity:0.333333;" d="M 116.179688 34.761719 L 116.09375 16.066406 L 98.222656 15.140625 L 114.917969 35.265625 C 115.878906 35.324219 115.902344 35.296875 115.929688 35.265625 Z M 116.179688 34.761719 "/>
<path style=" stroke:none;fill-rule:nonzero;fill:url(#linear3);" d="M 99.304688 16.183594 L 115.300781 16.113281 L 115.144531 33.273438 Z M 99.304688 16.183594 "/>
<path style=" stroke:none;fill-rule:nonzero;fill:rgb(0%,0%,0%);fill-opacity:0.317647;" d="M 99.410156 114.105469 L 118.128906 114.023438 C 119.027344 114.03125 119.890625 113.679688 120.527344 113.046875 C 121.160156 112.414062 121.511719 111.550781 121.5 110.652344 L 121.667969 93.558594 C 121.683594 92.21875 120.886719 91 119.65625 90.464844 C 118.421875 89.933594 116.988281 90.1875 116.019531 91.117188 L 97.132812 108.296875 C 96.105469 109.226562 95.757812 110.695312 96.265625 111.984375 C 96.769531 113.277344 98.023438 114.121094 99.410156 114.105469 Z M 99.410156 114.105469 "/>
<path style=" stroke:none;fill-rule:nonzero;fill:rgb(0%,0%,0%);fill-opacity:0.317647;" d="M 99.46875 112.984375 L 118.1875 112.902344 C 119.390625 112.882812 120.359375 111.914062 120.375 110.714844 L 120.542969 93.617188 C 120.550781 92.738281 120.039062 91.9375 119.234375 91.574219 C 118.433594 91.210938 117.492188 91.351562 116.835938 91.933594 L 97.949219 109.113281 C 97.265625 109.734375 97.035156 110.710938 97.375 111.570312 C 97.710938 112.429688 98.542969 112.992188 99.46875 112.984375 Z M 99.46875 112.984375 "/>
<path style=" stroke:none;fill-rule:nonzero;fill:rgb(0%,0%,0%);fill-opacity:0.317647;" d="M 99.410156 112.253906 L 118.128906 112.171875 C 118.53125 112.175781 118.921875 112.015625 119.207031 111.730469 C 119.492188 111.445312 119.648438 111.058594 119.644531 110.65625 L 119.8125 93.5625 C 119.828125 92.957031 119.476562 92.402344 118.917969 92.160156 C 118.363281 91.921875 117.71875 92.039062 117.285156 92.464844 L 98.398438 109.644531 C 97.738281 109.652344 97.160156 110.097656 96.980469 110.734375 C 96.804688 111.371094 97.066406 112.050781 97.628906 112.402344 C 98.1875 112.753906 98.914062 112.691406 99.410156 112.253906 Z M 99.410156 112.253906 "/>
<path style=" stroke:none;fill-rule:nonzero;fill:rgb(0%,0%,0%);fill-opacity:0.333333;" d="M 99.335938 111.445312 L 118.054688 111.359375 L 118.980469 93.511719 L 98.832031 110.183594 C 98.664062 110.894531 98.691406 111.007812 98.746094 111.113281 C 98.773438 111.144531 98.804688 111.167969 98.832031 111.195312 Z M 99.335938 111.445312 "/>
<path style=" stroke:none;fill-rule:nonzero;fill:url(#linear4);" d="M 117.949219 91.332031 L 118.003906 110.449219 L 99.640625 110.449219 Z M 117.949219 91.332031 "/>
<path style=" stroke:none;fill-rule:nonzero;fill:rgb(0%,0%,0%);fill-opacity:0.317647;" d="M 6.332031 91.875 L 6.414062 110.570312 C 6.40625 111.464844 6.757812 112.328125 7.390625 112.960938 C 8.027344 113.59375 8.890625 113.949219 9.785156 113.9375 L 26.902344 114.105469 C 28.246094 114.121094 29.464844 113.328125 29.996094 112.09375 C 30.53125 110.863281 30.273438 109.433594 29.347656 108.464844 L 12.148438 89.601562 C 11.214844 88.578125 9.746094 88.234375 8.457031 88.742188 C 7.167969 89.246094 6.320312 90.492188 6.332031 91.875 Z M 6.332031 91.875 "/>
<path style=" stroke:none;fill-rule:nonzero;fill:rgb(0%,0%,0%);fill-opacity:0.317647;" d="M 7.511719 91.929688 L 7.59375 110.628906 C 7.609375 111.828125 8.582031 112.800781 9.785156 112.816406 L 26.902344 112.980469 C 27.785156 112.996094 28.59375 112.484375 28.960938 111.679688 C 29.324219 110.878906 29.179688 109.933594 28.589844 109.277344 L 11.390625 90.414062 C 10.769531 89.730469 9.789062 89.5 8.925781 89.835938 C 8.066406 90.171875 7.5 91.007812 7.511719 91.929688 Z M 7.511719 91.929688 "/>
<path style=" stroke:none;fill-rule:nonzero;fill:rgb(0%,0%,0%);fill-opacity:0.317647;" d="M 8.1875 91.875 L 8.269531 110.570312 C 8.261719 110.972656 8.421875 111.363281 8.707031 111.648438 C 8.992188 111.9375 9.382812 112.09375 9.789062 112.085938 L 26.90625 112.253906 C 27.511719 112.265625 28.0625 111.914062 28.304688 111.359375 C 28.546875 110.804688 28.425781 110.160156 28 109.726562 L 10.800781 90.863281 C 10.386719 90.394531 9.726562 90.234375 9.140625 90.460938 C 8.558594 90.6875 8.179688 91.25 8.1875 91.875 Z M 8.1875 91.875 "/>
<path style=" stroke:none;fill-rule:nonzero;fill:rgb(0%,0%,0%);fill-opacity:0.333333;" d="M 8.933594 91.8125 L 9.015625 110.507812 C 9.289062 111.046875 9.320312 111.070312 9.351562 111.097656 C 9.710938 111.214844 9.742188 111.238281 9.769531 111.265625 L 26.886719 111.433594 L 10.191406 91.308594 Z M 8.933594 91.8125 "/>
<path style=" stroke:none;fill-rule:nonzero;fill:url(#linear5);" d="M 27.328125 110.386719 L 10.039062 110.386719 L 10.039062 91.574219 Z M 27.328125 110.386719 "/>
<path style=" stroke:none;fill-rule:nonzero;fill:rgb(0%,0%,0%);fill-opacity:0.317647;" d="M 31.457031 12.714844 L 12.738281 12.800781 C 11.839844 12.792969 10.976562 13.144531 10.34375 13.777344 C 9.710938 14.410156 9.355469 15.273438 9.367188 16.167969 L 9.199219 33.265625 C 9.1875 34.605469 9.980469 35.824219 11.210938 36.355469 C 12.445312 36.890625 13.878906 36.632812 14.847656 35.707031 L 33.734375 18.527344 C 34.765625 17.597656 35.113281 16.125 34.609375 14.835938 C 34.101562 13.542969 32.847656 12.699219 31.457031 12.714844 Z M 31.457031 12.714844 "/>
<path style=" stroke:none;fill-rule:nonzero;fill:rgb(0%,0%,0%);fill-opacity:0.317647;" d="M 31.457031 13.898438 L 12.738281 13.980469 C 11.535156 13.996094 10.566406 14.96875 10.546875 16.167969 L 10.378906 33.265625 C 10.375 34.140625 10.886719 34.941406 11.6875 35.304688 C 12.488281 35.667969 13.429688 35.527344 14.085938 34.949219 L 32.972656 17.769531 C 33.65625 17.148438 33.886719 16.171875 33.550781 15.3125 C 33.210938 14.453125 32.378906 13.890625 31.457031 13.898438 Z M 31.457031 13.898438 "/>
<path style=" stroke:none;fill-rule:nonzero;fill:rgb(0%,0%,0%);fill-opacity:0.317647;" d="M 31.457031 14.570312 L 12.738281 14.652344 C 12.335938 14.648438 11.945312 14.804688 11.660156 15.089844 C 11.375 15.375 11.214844 15.765625 11.222656 16.167969 L 11.054688 33.265625 C 11.046875 33.867188 11.402344 34.414062 11.953125 34.652344 C 12.507812 34.890625 13.148438 34.777344 13.582031 34.359375 L 32.46875 17.179688 C 32.933594 16.765625 33.09375 16.105469 32.871094 15.523438 C 32.644531 14.941406 32.082031 14.5625 31.457031 14.570312 Z M 31.457031 14.570312 "/>
<path style=" stroke:none;fill-rule:nonzero;fill:rgb(0%,0%,0%);fill-opacity:0.333333;" d="M 31.457031 15.328125 L 12.738281 15.410156 L 11.8125 33.265625 L 31.960938 16.589844 Z M 31.457031 15.328125 "/>
<path style=" stroke:none;fill-rule:nonzero;fill:url(#linear6);" d="M 12.605469 33.273438 L 12.703125 16.207031 L 31.445312 16.125 Z M 12.605469 33.273438 "/>
<path style=" stroke:none;fill-rule:nonzero;fill:rgb(0%,0%,0%);fill-opacity:0.286275;" d="M 28.84375 28.464844 C 28.53125 28.496094 28.246094 28.664062 28.066406 28.921875 C 27.886719 29.179688 27.832031 29.507812 27.914062 29.8125 L 29.769531 36.296875 L 42.585938 93.222656 L 41.40625 99.453125 C 41.347656 99.757812 41.429688 100.070312 41.621094 100.3125 C 41.816406 100.554688 42.105469 100.699219 42.417969 100.714844 L 61.046875 100.714844 C 61.375 100.703125 61.683594 100.542969 61.878906 100.28125 C 62.074219 100.019531 62.140625 99.683594 62.058594 99.367188 L 60.878906 93.386719 L 64.082031 81.175781 L 68.046875 93.558594 L 66.277344 99.285156 C 66.160156 99.613281 66.210938 99.976562 66.410156 100.261719 C 66.613281 100.546875 66.941406 100.714844 67.289062 100.714844 L 88.28125 100.800781 C 88.632812 100.804688 88.957031 100.632812 89.160156 100.347656 C 89.363281 100.066406 89.410156 99.699219 89.292969 99.371094 L 86.847656 92.800781 L 96.460938 37.644531 L 100.085938 29.980469 C 100.234375 29.65625 100.210938 29.277344 100.027344 28.976562 C 99.839844 28.671875 99.515625 28.480469 99.160156 28.460938 L 80.863281 28.460938 C 80.539062 28.449219 80.222656 28.585938 80.011719 28.832031 C 79.796875 29.078125 79.707031 29.40625 79.765625 29.726562 L 80.863281 35.957031 L 74.539062 71.578125 L 64.675781 33.515625 C 64.523438 33.089844 64.117188 32.804688 63.664062 32.804688 C 63.207031 32.804688 62.804688 33.089844 62.652344 33.515625 L 53.125 71.328125 L 45.199219 35.957031 L 46.210938 29.726562 C 46.253906 29.382812 46.128906 29.039062 45.871094 28.800781 L 28.925781 28.464844 Z M 28.84375 28.464844 "/>
<path style=" stroke:none;fill-rule:nonzero;fill:rgb(0%,0%,0%);fill-opacity:0.286275;" d="M 28.503906 27.621094 C 27.984375 27.742188 27.535156 28.074219 27.265625 28.535156 C 26.996094 28.996094 26.925781 29.546875 27.074219 30.0625 L 28.925781 36.460938 L 28.84375 36.460938 L 41.65625 93.21875 L 40.476562 99.28125 C 40.386719 99.851562 40.546875 100.429688 40.921875 100.867188 C 41.292969 101.304688 41.839844 101.554688 42.417969 101.554688 L 61.046875 101.554688 C 61.640625 101.558594 62.203125 101.296875 62.578125 100.839844 C 62.957031 100.382812 63.105469 99.777344 62.988281 99.199219 L 61.804688 93.472656 L 64.167969 84.460938 L 67.117188 93.554688 L 65.433594 99.027344 C 65.257812 99.617188 65.371094 100.253906 65.730469 100.753906 C 66.09375 101.253906 66.671875 101.546875 67.285156 101.554688 L 88.28125 101.644531 C 88.917969 101.640625 89.515625 101.332031 89.882812 100.816406 C 90.25 100.296875 90.347656 99.632812 90.136719 99.03125 L 87.777344 92.632812 L 97.304688 38.0625 L 100.929688 30.398438 C 101.203125 29.792969 101.152344 29.09375 100.796875 28.535156 C 100.4375 27.972656 99.824219 27.628906 99.160156 27.621094 L 80.863281 27.621094 C 80.289062 27.621094 79.742188 27.875 79.367188 28.3125 C 78.996094 28.746094 78.832031 29.324219 78.921875 29.894531 L 79.933594 35.957031 L 74.453125 67.285156 L 65.601562 33.265625 C 65.4375 32.324219 64.617188 31.636719 63.664062 31.636719 C 62.707031 31.636719 61.886719 32.324219 61.722656 33.265625 L 53.125 67.285156 L 46.125 35.707031 L 47.054688 29.894531 C 47.144531 29.328125 46.984375 28.75 46.609375 28.3125 C 46.238281 27.875 45.691406 27.621094 45.113281 27.625 L 28.925781 27.625 Z M 28.503906 27.621094 "/>
<path style=" stroke:none;fill-rule:nonzero;fill:rgb(0%,0%,0%);fill-opacity:0.286275;" d="M 28.335938 26.78125 C 27.570312 26.941406 26.90625 27.414062 26.503906 28.085938 C 26.105469 28.761719 26.003906 29.570312 26.226562 30.320312 L 28.085938 36.636719 L 28.085938 36.800781 L 40.816406 93.054688 L 39.632812 99.117188 C 39.492188 99.9375 39.71875 100.773438 40.253906 101.414062 C 40.792969 102.042969 41.585938 102.40625 42.417969 102.402344 L 61.046875 102.402344 C 61.898438 102.414062 62.707031 102.039062 63.246094 101.382812 C 63.785156 100.730469 64 99.863281 63.828125 99.035156 L 62.652344 93.304688 L 64.253906 87.410156 L 66.195312 93.554688 L 64.589844 98.777344 C 64.328125 99.628906 64.492188 100.554688 65.023438 101.269531 C 65.554688 101.984375 66.398438 102.40625 67.289062 102.398438 L 88.28125 102.484375 C 89.179688 102.46875 90.015625 102.027344 90.535156 101.296875 C 91.050781 100.5625 91.183594 99.628906 90.894531 98.777344 L 88.617188 92.632812 L 98.144531 38.230469 L 101.683594 30.734375 C 102.078125 29.875 102.007812 28.871094 101.496094 28.070312 C 100.988281 27.273438 100.105469 26.785156 99.15625 26.777344 L 80.863281 26.777344 C 80.03125 26.769531 79.238281 27.132812 78.699219 27.765625 C 78.160156 28.402344 77.933594 29.242188 78.082031 30.0625 L 79.09375 35.957031 L 74.203125 63.414062 L 66.363281 33.097656 C 66.023438 31.890625 64.921875 31.058594 63.664062 31.058594 C 62.410156 31.058594 61.308594 31.890625 60.96875 33.097656 L 53.207031 63.917969 L 46.96875 35.875 L 47.898438 29.980469 C 48.015625 29.171875 47.777344 28.355469 47.242188 27.742188 C 46.707031 27.125 45.929688 26.773438 45.113281 26.78125 L 28.925781 26.78125 C 28.730469 26.757812 28.53125 26.757812 28.335938 26.78125 Z M 28.335938 26.78125 "/>
<path style=" stroke:none;fill-rule:nonzero;fill:rgb(0%,0%,0%);fill-opacity:0.286275;" d="M 28.503906 25.769531 C 27.390625 25.882812 26.378906 26.484375 25.746094 27.40625 C 25.113281 28.332031 24.917969 29.488281 25.214844 30.570312 L 27.074219 36.886719 L 27.074219 37.050781 L 39.804688 93.222656 L 38.710938 98.863281 C 38.488281 99.976562 38.777344 101.128906 39.492188 102.007812 C 40.210938 102.886719 41.285156 103.402344 42.417969 103.410156 L 61.050781 103.410156 C 62.289062 103.414062 63.453125 102.816406 64.171875 101.808594 C 64.886719 102.816406 66.050781 103.414062 67.289062 103.410156 L 88.28125 103.496094 C 89.527344 103.484375 90.6875 102.871094 91.386719 101.847656 C 92.089844 100.824219 92.253906 99.523438 91.820312 98.359375 L 89.714844 92.550781 L 99.074219 38.65625 L 102.613281 31.246094 C 103.1875 30.058594 103.109375 28.664062 102.410156 27.546875 C 101.703125 26.4375 100.476562 25.761719 99.15625 25.769531 L 80.863281 25.769531 C 79.730469 25.757812 78.652344 26.25 77.917969 27.113281 C 77.1875 27.976562 76.875 29.117188 77.070312 30.230469 L 78.082031 35.957031 L 74.035156 58.609375 L 67.371094 32.84375 C 66.964844 31.125 65.429688 29.914062 63.664062 29.914062 C 61.894531 29.914062 60.359375 31.125 59.953125 32.84375 L 53.292969 59.371094 L 47.980469 35.792969 L 48.90625 30.148438 C 49.074219 29.046875 48.75 27.929688 48.019531 27.085938 C 47.292969 26.242188 46.230469 25.761719 45.113281 25.769531 L 28.925781 25.769531 C 28.785156 25.761719 28.644531 25.761719 28.503906 25.769531 Z M 64.335938 91.117188 L 65.179688 93.644531 L 64.25 96.507812 L 63.660156 93.644531 Z M 64.335938 91.117188 "/>
<path style=" stroke:none;fill-rule:nonzero;fill:rgb(0%,0%,0%);fill-opacity:0.286275;" d="M 28.90625 29.558594 L 30.824219 36.019531 L 43.679688 93.15625 L 42.417969 99.644531 L 61.070312 99.644531 L 59.78125 93.390625 L 64.019531 77.351562 L 69.121094 93.601562 L 67.308594 99.644531 L 88.320312 99.6875 L 85.742188 92.832031 L 95.398438 37.503906 L 99.15625 29.546875 L 80.863281 29.558594 L 81.921875 35.988281 L 74.785156 76.632812 L 63.664062 33.769531 L 53.039062 75.875 L 44.105469 35.792969 L 45.113281 29.558594 Z M 28.90625 29.558594 "/>
<path style=" stroke:none;fill-rule:nonzero;fill:url(#linear7);" d="M 28.925781 29.558594 L 38.042969 36.285156 L 50.246094 92.96875 L 42.40625 99.644531 L 43.679688 93.136719 L 30.867188 36.042969 Z M 28.925781 29.558594 "/>
<path style=" stroke:none;fill-rule:nonzero;fill:rgb(47.450981%,12.941177%,0%);fill-opacity:1;" d="M 50.257812 92.96875 L 42.40625 99.644531 L 61.089844 99.621094 L 53.882812 93.011719 Z M 50.257812 92.96875 "/>
<path style=" stroke:none;fill-rule:nonzero;fill:url(#linear8);" d="M 45.070312 29.621094 L 38.050781 36.304688 L 50.253906 92.964844 L 53.847656 93 L 53.125 75.367188 L 44.441406 36.042969 Z M 45.070312 29.621094 "/>
<path style=" stroke:none;fill-rule:nonzero;fill:url(#linear9);" d="M 61.082031 99.644531 L 53.894531 93.023438 L 63.976562 54.316406 L 64.023438 77.328125 L 59.785156 93.390625 Z M 61.082031 99.644531 "/>
<path style=" stroke:none;fill-rule:nonzero;fill:url(#linear10);" d="M 63.664062 33.683594 L 64 54.148438 L 53.871094 93.042969 L 53.207031 75.535156 Z M 63.664062 33.683594 "/>
<path style=" stroke:none;fill-rule:nonzero;fill:url(#linear11);" d="M 28.90625 29.558594 L 38.054688 36.296875 L 45.113281 29.582031 Z M 28.90625 29.558594 "/>
<path style=" stroke:none;fill-rule:nonzero;fill:url(#linear12);" d="M 63.640625 33.726562 L 63.976562 54.296875 L 73.261719 93.050781 L 79.050781 93.078125 Z M 63.640625 33.726562 "/>
<path style=" stroke:none;fill-rule:nonzero;fill:url(#linear13);" d="M 63.976562 54.316406 L 64.023438 77.285156 L 69.136719 93.589844 L 67.324219 99.617188 L 73.316406 93.074219 Z M 63.976562 54.316406 "/>
<path style=" stroke:none;fill-rule:nonzero;fill:rgb(47.450981%,12.941177%,0%);fill-opacity:1;" d="M 79.027344 93.042969 L 73.335938 93.066406 L 67.285156 99.644531 L 88.308594 99.679688 Z M 79.027344 93.042969 "/>
<path style=" stroke:none;fill-rule:nonzero;fill:url(#linear14);" d="M 95.378906 37.417969 L 99.136719 29.605469 L 89.015625 35.324219 L 78.988281 93.058594 L 88.332031 99.699219 L 85.742188 92.839844 Z M 95.378906 37.417969 "/>
<path style=" stroke:none;fill-rule:nonzero;fill:url(#linear15);" d="M 81.921875 35.957031 L 80.832031 29.621094 L 89.027344 35.285156 L 78.988281 93 L 74.777344 76.621094 Z M 81.921875 35.957031 "/>
<path style=" stroke:none;fill-rule:nonzero;fill:url(#linear16);" d="M 80.820312 29.601562 L 88.976562 35.347656 L 99.179688 29.566406 Z M 80.820312 29.601562 "/>
<path style=" stroke:none;fill-rule:nonzero;fill:rgb(0%,0%,0%);fill-opacity:0.262745;" d="M 64 2.445312 C 30.023438 2.445312 2.453125 30.019531 2.453125 64.003906 C 2.453125 97.984375 30.023438 125.558594 64 125.558594 C 97.976562 125.558594 125.546875 97.984375 125.546875 64 C 125.546875 30.015625 97.976562 2.445312 64 2.445312 Z M 63.746094 13.054688 C 91.613281 13.054688 114.167969 35.632812 114.167969 63.578125 C 114.167969 91.527344 91.613281 114.191406 63.746094 114.191406 C 35.878906 114.191406 13.242188 91.527344 13.242188 63.578125 C 13.246094 35.632812 35.878906 13.054688 63.746094 13.054688 Z M 63.746094 13.054688 "/>
<path style=" stroke:none;fill-rule:nonzero;fill:rgb(0%,0%,0%);fill-opacity:0.278431;" d="M 64 1.515625 C 29.515625 1.515625 1.527344 29.515625 1.527344 64.003906 C 1.527344 98.488281 29.515625 126.488281 64 126.488281 C 98.484375 126.488281 126.472656 98.488281 126.472656 64.003906 C 126.472656 29.515625 98.484375 1.515625 64 1.515625 Z M 63.746094 13.980469 C 91.105469 13.980469 113.238281 36.136719 113.238281 63.578125 C 113.238281 91.023438 91.105469 113.265625 63.746094 113.265625 C 36.390625 113.265625 14.171875 91.023438 14.171875 63.578125 C 14.171875 36.140625 36.386719 13.980469 63.746094 13.980469 Z M 63.746094 13.980469 "/>
<path style=" stroke:none;fill-rule:nonzero;fill:rgb(0%,0%,0%);fill-opacity:0.415686;" d="M 64 0 C 28.695312 0 0.0078125 28.695312 0.0078125 64 C 0.0078125 99.304688 28.695312 128 64 128 C 99.304688 128 127.992188 99.304688 127.992188 64 C 127.992188 28.695312 99.304688 0 64 0 Z M 63.746094 15.496094 C 90.285156 15.496094 111.71875 36.949219 111.71875 63.578125 C 111.71875 90.210938 90.277344 111.746094 63.746094 111.746094 C 37.214844 111.746094 15.691406 90.199219 15.691406 63.578125 C 15.691406 36.957031 37.207031 15.496094 63.746094 15.496094 Z M 63.746094 15.496094 "/>
<path style=" stroke:none;fill-rule:nonzero;fill:url(#linear17);" d="M 64 3.367188 C 30.519531 3.367188 3.378906 30.511719 3.378906 64 C 3.378906 97.488281 30.519531 124.632812 64 124.632812 C 97.480469 124.632812 124.621094 97.488281 124.621094 64 C 124.621094 30.511719 97.480469 3.367188 64 3.367188 Z M 63.746094 12.125 C 92.109375 12.125 115.089844 35.140625 115.089844 63.578125 C 115.089844 92.015625 92.109375 115.117188 63.746094 115.117188 C 35.386719 115.117188 12.316406 92.015625 12.316406 63.578125 C 12.316406 35.140625 35.386719 12.125 63.746094 12.125 Z M 63.746094 12.125 "/>
<path style=" stroke:none;fill-rule:nonzero;fill:url(#linear18);" d="M 62.46875 3.765625 C 30.683594 3.765625 4.972656 29.480469 4.972656 61.28125 C 4.972656 93.082031 30.683594 118.796875 62.46875 118.796875 C 94.253906 118.796875 119.972656 93.082031 119.972656 61.28125 C 119.972656 29.480469 94.257812 3.765625 62.46875 3.765625 Z M 62.214844 6.289062 C 92.273438 6.289062 116.683594 30.734375 116.683594 60.859375 C 116.683594 90.980469 92.28125 115.511719 62.214844 115.511719 C 32.152344 115.511719 7.667969 90.988281 7.667969 60.859375 C 7.667969 30.726562 32.160156 6.289062 62.214844 6.289062 Z M 62.214844 6.289062 "/>
</g>
</svg>
